<mxfile host="app.diagrams.net" modified="2023-07-17T14:59:13.993Z" agent="Mozilla/5.0 (Windows NT 10.0; Win64; x64) AppleWebKit/537.36 (KHTML, like Gecko) Chrome/114.0.0.0 Safari/537.36" etag="B01UgM80PEYsZiWEBI7Z" version="21.6.2" type="github">
  <diagram name="Page-1" id="hNzaiiXcDnGU_uFBfYd-">
    <mxGraphModel dx="1444" dy="1836" grid="1" gridSize="10" guides="1" tooltips="1" connect="1" arrows="1" fold="1" page="1" pageScale="1" pageWidth="850" pageHeight="1100" math="0" shadow="0">
      <root>
        <mxCell id="0" />
        <mxCell id="1" parent="0" />
        <mxCell id="21kRJ1MQ0vZQN76AOf-v-21" style="edgeStyle=orthogonalEdgeStyle;rounded=0;orthogonalLoop=1;jettySize=auto;html=1;" edge="1" parent="1" source="21kRJ1MQ0vZQN76AOf-v-1" target="21kRJ1MQ0vZQN76AOf-v-6">
          <mxGeometry relative="1" as="geometry">
            <Array as="points">
              <mxPoint x="415" y="-700" />
              <mxPoint x="415" y="-630" />
            </Array>
          </mxGeometry>
        </mxCell>
        <mxCell id="21kRJ1MQ0vZQN76AOf-v-1" value="&lt;font style=&quot;font-size: 15px;&quot;&gt;Sensor LDR&lt;/font&gt;" style="rounded=0;whiteSpace=wrap;html=1;" vertex="1" parent="1">
          <mxGeometry x="240" y="-730" width="120" height="60" as="geometry" />
        </mxCell>
        <mxCell id="21kRJ1MQ0vZQN76AOf-v-19" style="edgeStyle=orthogonalEdgeStyle;rounded=0;orthogonalLoop=1;jettySize=auto;html=1;entryX=0.004;entryY=0.541;entryDx=0;entryDy=0;entryPerimeter=0;" edge="1" parent="1" source="21kRJ1MQ0vZQN76AOf-v-2" target="21kRJ1MQ0vZQN76AOf-v-6">
          <mxGeometry relative="1" as="geometry">
            <Array as="points" />
          </mxGeometry>
        </mxCell>
        <mxCell id="21kRJ1MQ0vZQN76AOf-v-2" value="&lt;span style=&quot;font-size: 15px;&quot;&gt;Sensor Hujan&lt;br&gt;&lt;/span&gt;" style="rounded=0;whiteSpace=wrap;html=1;" vertex="1" parent="1">
          <mxGeometry x="240" y="-630" width="120" height="60" as="geometry" />
        </mxCell>
        <mxCell id="21kRJ1MQ0vZQN76AOf-v-20" style="edgeStyle=orthogonalEdgeStyle;rounded=0;orthogonalLoop=1;jettySize=auto;html=1;entryX=0;entryY=0.75;entryDx=0;entryDy=0;" edge="1" parent="1" source="21kRJ1MQ0vZQN76AOf-v-4" target="21kRJ1MQ0vZQN76AOf-v-6">
          <mxGeometry relative="1" as="geometry" />
        </mxCell>
        <mxCell id="21kRJ1MQ0vZQN76AOf-v-4" value="&lt;font style=&quot;font-size: 15px;&quot;&gt;Sensor DHT11&lt;/font&gt;" style="rounded=0;whiteSpace=wrap;html=1;" vertex="1" parent="1">
          <mxGeometry x="240" y="-530" width="120" height="60" as="geometry" />
        </mxCell>
        <mxCell id="21kRJ1MQ0vZQN76AOf-v-25" style="edgeStyle=orthogonalEdgeStyle;rounded=0;orthogonalLoop=1;jettySize=auto;html=1;startArrow=classic;startFill=1;endArrow=none;endFill=0;" edge="1" parent="1" source="21kRJ1MQ0vZQN76AOf-v-6">
          <mxGeometry relative="1" as="geometry">
            <mxPoint x="610" y="-605" as="targetPoint" />
          </mxGeometry>
        </mxCell>
        <mxCell id="21kRJ1MQ0vZQN76AOf-v-26" style="edgeStyle=orthogonalEdgeStyle;rounded=0;orthogonalLoop=1;jettySize=auto;html=1;entryX=0;entryY=0.5;entryDx=0;entryDy=0;" edge="1" parent="1" source="21kRJ1MQ0vZQN76AOf-v-6" target="21kRJ1MQ0vZQN76AOf-v-15">
          <mxGeometry relative="1" as="geometry" />
        </mxCell>
        <mxCell id="21kRJ1MQ0vZQN76AOf-v-6" value="&lt;span style=&quot;font-size: 15px;&quot;&gt;ESP8266&lt;br&gt;&lt;/span&gt;" style="whiteSpace=wrap;html=1;aspect=fixed;" vertex="1" parent="1">
          <mxGeometry x="470" y="-670" width="130" height="130" as="geometry" />
        </mxCell>
        <mxCell id="21kRJ1MQ0vZQN76AOf-v-22" style="edgeStyle=orthogonalEdgeStyle;rounded=0;orthogonalLoop=1;jettySize=auto;html=1;entryX=0;entryY=0.5;entryDx=0;entryDy=0;startArrow=classic;startFill=1;exitX=0.089;exitY=0.65;exitDx=0;exitDy=0;exitPerimeter=0;" edge="1" parent="1" source="21kRJ1MQ0vZQN76AOf-v-9" target="21kRJ1MQ0vZQN76AOf-v-10">
          <mxGeometry relative="1" as="geometry">
            <mxPoint x="640" y="-560" as="sourcePoint" />
            <Array as="points">
              <mxPoint x="661" y="-559" />
              <mxPoint x="620" y="-559" />
              <mxPoint x="620" y="-640" />
            </Array>
          </mxGeometry>
        </mxCell>
        <mxCell id="21kRJ1MQ0vZQN76AOf-v-9" value="&lt;font style=&quot;font-size: 15px;&quot;&gt;Jaringan Wifi&lt;/font&gt;" style="ellipse;shape=cloud;whiteSpace=wrap;html=1;" vertex="1" parent="1">
          <mxGeometry x="650" y="-610" width="140" height="80" as="geometry" />
        </mxCell>
        <mxCell id="21kRJ1MQ0vZQN76AOf-v-10" value="&lt;font style=&quot;font-size: 15px;&quot;&gt;Blynk&lt;/font&gt;" style="rounded=0;whiteSpace=wrap;html=1;" vertex="1" parent="1">
          <mxGeometry x="650" y="-670" width="120" height="60" as="geometry" />
        </mxCell>
        <mxCell id="21kRJ1MQ0vZQN76AOf-v-11" value="&lt;font style=&quot;font-size: 15px;&quot;&gt;Berputar ke kanan&lt;/font&gt;" style="rounded=0;whiteSpace=wrap;html=1;" vertex="1" parent="1">
          <mxGeometry x="940" y="-820" width="120" height="60" as="geometry" />
        </mxCell>
        <mxCell id="21kRJ1MQ0vZQN76AOf-v-13" value="&lt;font style=&quot;font-size: 15px;&quot;&gt;Berputar ke kiri&lt;/font&gt;" style="rounded=0;whiteSpace=wrap;html=1;" vertex="1" parent="1">
          <mxGeometry x="940" y="-730" width="120" height="60" as="geometry" />
        </mxCell>
        <mxCell id="21kRJ1MQ0vZQN76AOf-v-34" value="" style="edgeStyle=orthogonalEdgeStyle;rounded=0;orthogonalLoop=1;jettySize=auto;html=1;" edge="1" parent="1" source="21kRJ1MQ0vZQN76AOf-v-15" target="21kRJ1MQ0vZQN76AOf-v-33">
          <mxGeometry relative="1" as="geometry" />
        </mxCell>
        <mxCell id="21kRJ1MQ0vZQN76AOf-v-15" value="&lt;font style=&quot;font-size: 15px;&quot;&gt;Motor Driver l298n&lt;/font&gt;" style="whiteSpace=wrap;html=1;aspect=fixed;" vertex="1" parent="1">
          <mxGeometry x="600" y="-800" width="110" height="110" as="geometry" />
        </mxCell>
        <mxCell id="21kRJ1MQ0vZQN76AOf-v-32" style="edgeStyle=orthogonalEdgeStyle;rounded=0;orthogonalLoop=1;jettySize=auto;html=1;exitX=1;exitY=0.5;exitDx=0;exitDy=0;entryX=0.5;entryY=1;entryDx=0;entryDy=0;" edge="1" parent="1" source="21kRJ1MQ0vZQN76AOf-v-29" target="21kRJ1MQ0vZQN76AOf-v-6">
          <mxGeometry relative="1" as="geometry" />
        </mxCell>
        <mxCell id="21kRJ1MQ0vZQN76AOf-v-29" value="&lt;font style=&quot;font-size: 15px;&quot;&gt;Sensor MLX90614&lt;/font&gt;" style="rounded=0;whiteSpace=wrap;html=1;" vertex="1" parent="1">
          <mxGeometry x="240" y="-420" width="120" height="60" as="geometry" />
        </mxCell>
        <mxCell id="21kRJ1MQ0vZQN76AOf-v-35" style="edgeStyle=orthogonalEdgeStyle;rounded=0;orthogonalLoop=1;jettySize=auto;html=1;entryX=0;entryY=0.5;entryDx=0;entryDy=0;" edge="1" parent="1" source="21kRJ1MQ0vZQN76AOf-v-33" target="21kRJ1MQ0vZQN76AOf-v-11">
          <mxGeometry relative="1" as="geometry">
            <Array as="points">
              <mxPoint x="900" y="-760" />
              <mxPoint x="900" y="-790" />
            </Array>
          </mxGeometry>
        </mxCell>
        <mxCell id="21kRJ1MQ0vZQN76AOf-v-37" style="edgeStyle=orthogonalEdgeStyle;rounded=0;orthogonalLoop=1;jettySize=auto;html=1;exitX=1;exitY=0.75;exitDx=0;exitDy=0;entryX=0;entryY=0.5;entryDx=0;entryDy=0;" edge="1" parent="1" source="21kRJ1MQ0vZQN76AOf-v-33" target="21kRJ1MQ0vZQN76AOf-v-13">
          <mxGeometry relative="1" as="geometry" />
        </mxCell>
        <mxCell id="21kRJ1MQ0vZQN76AOf-v-33" value="&lt;font style=&quot;font-size: 15px;&quot;&gt;Motor DC 12V&lt;/font&gt;" style="whiteSpace=wrap;html=1;aspect=fixed;" vertex="1" parent="1">
          <mxGeometry x="750" y="-800" width="110" height="110" as="geometry" />
        </mxCell>
        <mxCell id="21kRJ1MQ0vZQN76AOf-v-40" value="" style="endArrow=none;dashed=1;html=1;rounded=0;" edge="1" parent="1">
          <mxGeometry width="50" height="50" relative="1" as="geometry">
            <mxPoint x="330" y="-750" as="sourcePoint" />
            <mxPoint x="380" y="-800" as="targetPoint" />
          </mxGeometry>
        </mxCell>
      </root>
    </mxGraphModel>
  </diagram>
</mxfile>
